<?xml version="1.0" encoding="utf-8"?>
<!-- Generator: Adobe Illustrator 22.1.0, SVG Export Plug-In . SVG Version: 6.00 Build 0)  -->
<svg version="1.1" id="Capa_1" xmlns="http://www.w3.org/2000/svg" xmlns:xlink="http://www.w3.org/1999/xlink" x="0px" y="0px"
	 viewBox="0 0 562 299.3" style="enable-background:new 0 0 562 299.3;" xml:space="preserve">
<style type="text/css">
	.st0{opacity:5.000000e-02;}
</style>
<g id="Capa_2_1_">
</g>
<path class="st0" d="M2.1,151.6h12.3v38.9c0,4.5,0.2,5.4,1,7c1.4,2.7,4.1,4.1,8.2,4.1c5.3,0,8.6-2.5,9-6.8c0.2-1.4,0.2-2.1,0.2-5.3
	v-37.9h12.1v39.9c0,5.6,0,6.8-1,9.3c-1.6,4.7-7.4,11.1-20,11.1c-9,0-15.6-2.7-19.1-8c-1.9-3.1-2.5-5.4-2.5-11.1L2.1,151.6L2.1,151.6
	z"/>
<path class="st0" d="M49.2,169.1l10.1-2.9c1,1.8,1.6,3.7,1.6,5.4c2.7-1.9,3.1-2.1,5.1-3.3c2.3-1.2,5.3-1.9,7.8-1.9
	c4.9,0,9.1,2.5,10.5,6.2c0.6,1.6,0.8,3.5,0.8,6.2v31.9H73.8v-28.2c0-4.9-0.8-6.4-3.9-6.4c-2.3,0-5.3,1.6-8,3.9v30.9H50.4v-31.7
	C50.8,175.5,50.4,171.8,49.2,169.1z"/>
<path class="st0" d="M100.4,148.1c3.9,0,6.8,3.1,6.8,7c0,3.9-3.1,7-7,7c-3.9,0-7-3.1-7-7C93.2,151.2,96.3,148.1,100.4,148.1z
	 M94.4,167.9l11.5-1.8v44.8H94.4V167.9z"/>
<path class="st0" d="M109.6,167.9l11.7-1.4l6.2,19.7c1,2.9,2.1,7.6,2.7,10.5c0.4-2.5,1.4-6.8,2.7-11.1l5.8-18.3h11.9l-16,43.6h-9.5
	L109.6,167.9z"/>
<path class="st0" d="M184.1,199.3l4.5,6.8c-5.1,4.1-10.3,6-16.5,6c-12.5,0-20.6-9-20.6-22.6c0-7.8,1.6-13,5.4-17.3
	c3.5-4.1,8-5.8,13.8-5.8c5.1,0,9.7,1.8,12.6,4.7c4.1,4.1,5.8,9.9,5.8,19.1c0,1,0,1.4,0,2.7h-25.3v0.4c0,6.8,3.3,10.5,9.1,10.5
	C176.9,203.5,180.6,202.2,184.1,199.3z M164,184.3h13.2v-0.6c0-3.3-0.4-4.9-1.4-6.6c-1.2-1.8-2.7-2.5-5.1-2.5
	C166.4,174.7,164,178.1,164,184.3L164,184.3z"/>
<path class="st0" d="M194.8,168.9l10.3-2.7c1,1.8,1.6,3.7,1.8,6.2c1.6-2.1,4.3-4.5,6.4-5.4c1-0.4,2.5-0.8,3.7-0.8
	c1.8,0,2.5,0.2,4.3,1l-3.1,10.1c-1.2-0.6-2.1-0.8-3.3-0.8c-2.5,0-4.9,1.2-7,3.7v30.9h-11.5v-29.2
	C196.3,175.9,195.8,171.4,194.8,168.9z"/>
<path class="st0" d="M253.8,170.1l-3.7,7.6c-4.3-2.1-7.6-3.1-10.7-3.1c-3.3,0-5.4,1.8-5.4,4.3c0,2.1,1.4,3.5,5.4,4.5l5.3,1.4
	c5.4,1.4,7.2,2.9,8.8,4.9c1.6,2.1,2.3,4.5,2.3,7.4c0,9-7.6,15.2-18.7,15.2c-5.4,0-11.3-1.8-17.7-5.1l4.1-8.4
	c3.5,2.1,9.5,4.9,14.4,4.9c3.3,0,5.8-2.1,5.8-4.9c0-2.9-2.1-4.5-6.8-5.4l-5.1-1c-2.9-0.6-6.4-2.5-8-4.5s-2.5-5.1-2.5-7.8
	c0-8.6,6.8-14.2,16.9-14.2C245,166,249.7,168.1,253.8,170.1z"/>
<path class="st0" d="M267.6,148.1c3.9,0,6.8,3.1,6.8,7c0,3.9-3.1,7-7,7s-7-3.1-7-7C260.4,151.2,263.7,148.1,267.6,148.1z
	 M261.7,167.9l11.5-1.8v44.8h-11.5V167.9z"/>
<path class="st0" d="M318,149.6V195c0,10.7,0.8,14.2,1.6,16h-10.3c-0.4-0.8-0.6-1.4-0.8-2.5c-2.7,2.5-6.2,3.7-10.1,3.7
	c-11.1,0-18.1-8.6-18.1-22.2c0-13.6,7.6-23,18.7-23c3.1,0,5.6,0.8,7.8,2.5c-0.2-1-0.4-3.9-0.4-6.4v-15L318,149.6z M306.7,178.6
	c-2.1-1.9-4.1-2.7-6.2-2.7c-5.1,0-7.4,4.3-7.4,14c0,9.3,1.9,12.5,8,12.5c2.1,0,4.5-1.4,5.6-2.7V178.6z"/>
<path class="st0" d="M326.7,172.4c2.7-1.8,4.1-2.3,7-3.5c4.3-1.8,8-2.5,11.9-2.5c7.4,0,12.5,2.7,14,7.6c0.6,1.8,0.8,3.1,0.8,7.8
	l-0.2,14.6c0,0.2,0,0.6,0,0.8c0,4.7,0.8,6.4,4.1,9l-6,7c-2.7-1.2-5.1-3.1-6.2-5.3c-1.6,1.6-1.8,1.8-2.7,2.3
	c-2.1,1.6-5.3,2.3-8.8,2.3c-9.7,0-15-4.9-15-13.6c0-10.3,7-15,21-15c0.8,0,1.4,0,2.5,0v-1.8c0-4.9-1-6.4-5.1-6.4
	c-3.7,0-8,1.8-12.6,4.9L326.7,172.4z M349.1,191.7h-0.6c-8,0-10.7,1.4-10.7,6.6c0,3.5,2.1,5.6,5.1,5.6c2.1,0,4.3-1.2,6-2.9
	L349.1,191.7z"/>
<path class="st0" d="M405.5,149.6V195c0,10.7,0.8,14.2,1.6,16h-10.3c-0.4-0.8-0.6-1.4-0.8-2.5c-2.7,2.5-6.2,3.7-10.1,3.7
	c-11.1,0-18.1-8.6-18.1-22.2c0-13.6,7.6-23,18.7-23c3.1,0,5.6,0.8,7.8,2.5c-0.2-1-0.4-3.9-0.4-6.4v-15L405.5,149.6z M394.3,178.6
	c-2.1-1.9-4.1-2.7-6.2-2.7c-5.1,0-7.4,4.3-7.4,14c0,9.3,1.9,12.5,8,12.5c2.1,0,4.5-1.4,5.6-2.7V178.6z"/>
<path class="st0" d="M41.8,229.6l-5.4,8.2c-2.9-2.1-6.2-3.3-9.5-3.3c-4.1,0-8,1.9-10.1,5.1c-2.3,3.5-3.3,8.4-3.3,15.2
	c0,8.2,0.6,12.6,2.5,15.8c2.3,4.3,6.2,6.6,11.5,6.6c3.3,0,6-1,9-2.9c0.4-0.2,0.8-0.6,1.2-1l5.4,7.6c-4.7,3.9-9.7,5.4-16.5,5.4
	c-8.2,0-14.4-2.7-19.3-8.2C2.3,272.6,0,265.6,0,256.9c0-7.4,1.4-13.2,4.1-18.5c4.7-8.6,13-13.8,22.8-13.8
	C32.7,225,38.7,226.7,41.8,229.6z"/>
<path class="st0" d="M44.8,246.9c2.7-1.8,4.1-2.3,7-3.5c4.3-1.8,8-2.5,11.9-2.5c7.4,0,12.5,2.7,14,7.6c0.6,1.8,0.8,3.1,0.8,7.8
	l-0.2,14.6c0,0.2,0,0.6,0,0.8c0,4.7,0.8,6.4,4.1,9l-6,7c-2.7-1.2-5.1-3.1-6.2-5.3c-1.6,1.6-1.8,1.8-2.7,2.3
	c-2.1,1.6-5.3,2.3-8.8,2.3c-9.7,0-15-4.9-15-13.6c0-10.3,7-15,21-15c0.8,0,1.4,0,2.5,0v-1.8c0-4.9-1-6.4-5.1-6.4
	c-3.7,0-8,1.8-12.6,4.9L44.8,246.9z M67.1,266.4h-0.6c-8,0-10.7,1.4-10.7,6.6c0,3.5,2.1,5.6,5.1,5.6c2.1,0,4.3-1.2,6-2.9L67.1,266.4
	z"/>
<path class="st0" d="M86.6,243.8l10.3-2.7c0.8,1.2,1.2,2.1,1.6,4.5c2.9-2.9,6.6-4.5,10.7-4.5c3.5,0,6.6,1.2,9,3.5
	c0.6,0.6,0.8,1,1.8,2.1c4.1-4.1,7.6-5.6,12.5-5.6c3.5,0,6.6,1,8.6,2.7c2.5,2.1,3.3,4.7,3.3,10.7v30.9h-11.1v-28.8
	c0-5.3-0.6-6.2-3.5-6.2c-2.1,0-5.1,1.4-7.6,3.7v31.3h-10.9v-28.4c0-5.4-0.8-6.8-3.9-6.8c-2.1,0-5.1,1.2-7.6,3.3v31.7H88.5v-30.4
	C88.2,248.7,87.8,246,86.6,243.8z"/>
<path class="st0" d="M159,222.6c3.9,0,6.8,3.1,6.8,7s-3.1,7-7,7c-3.9,0-7-3.1-7-7C152,225.9,155.1,222.6,159,222.6z M153.1,242.5
	l11.5-1.8v44.8h-11.5V242.5z"/>
<path class="st0" d="M184.9,222.4c0.4,2.3,0.6,5.3,0.6,11.3v34.1c0,7.6,0,8.6,0.8,9.7c0.4,0.8,1.4,1.2,2.3,1.2c0.4,0,0.8,0,1.4-0.2
	l1.9,6.8c-1.9,0.8-4.3,1.2-6.8,1.2c-4.9,0-8.8-2.3-10.1-6c-0.8-2.1-1-3.5-1-9.7v-32.5c0-5.6-0.2-9.1-0.6-13L184.9,222.4z"/>
<path class="st0" d="M212.3,240.9c6.2,0,11.1,2.1,14.8,6.6c3.5,4.1,5.1,9,5.1,16c0,7.6-1.8,12.6-5.4,16.9c-3.3,3.7-7.6,6-14.4,6
	c-11.9,0-19.7-9-19.7-22.6C192.7,250.1,200.4,240.9,212.3,240.9z M212.5,249.5c-2.7,0-4.9,1.8-5.8,4.5c-0.8,2.3-1.2,5.4-1.2,9.7
	c0,5.1,0.6,8.8,1.4,11.1c1,2.3,3.5,3.5,5.8,3.5c4.9,0,7-4.5,7-14.8c0-5.8-0.8-9.7-2.3-11.7C216.2,250.3,214.4,249.5,212.5,249.5z"/>
<path class="st0" d="M257.8,226.1h12.1v47.7c0,7.6-0.2,9.1-0.8,11.7c-1.8,7.2-8.4,11.9-13.8,13.8l-5.4-6.2c3.1-1.9,5.8-4.9,6.8-7.2
	c1-2.1,1.2-4.5,1.2-10.9V226.1z"/>
<path class="st0" d="M294.2,240.9c6.2,0,11.1,2.1,14.8,6.6c3.5,4.1,5.1,9,5.1,16c0,7.6-1.8,12.6-5.4,16.9c-3.3,3.7-7.6,6-14.4,6
	c-11.9,0-19.7-9-19.7-22.6C274.6,250.1,282.4,240.9,294.2,240.9z M294.2,249.5c-2.7,0-4.9,1.8-5.8,4.5c-0.8,2.3-1.2,5.4-1.2,9.7
	c0,5.1,0.6,8.8,1.4,11.1c1,2.3,3.5,3.5,5.8,3.5c4.9,0,7-4.5,7-14.8c0-5.8-0.8-9.7-2.3-11.7C298.1,250.3,296.4,249.5,294.2,249.5z"/>
<path class="st0" d="M350.7,244.6l-3.7,7.6c-4.3-2.1-7.6-3.1-10.7-3.1c-3.3,0-5.4,1.8-5.4,4.3c0,2.1,1.4,3.5,5.4,4.5l5.3,1.4
	c5.4,1.4,7.2,2.9,8.8,4.9c1.6,2.1,2.3,4.5,2.3,7.4c0,9-7.6,15.2-18.7,15.2c-5.4,0-11.3-1.8-17.7-5.1l4.1-8.4
	c3.5,2.1,9.5,4.9,14.4,4.9c3.3,0,5.8-2.1,5.8-4.9c0-2.9-2.1-4.5-6.8-5.4l-5.1-1c-2.9-0.6-6.4-2.5-8-4.5c-1.6-1.9-2.5-5.1-2.5-7.8
	c0-8.6,6.8-14.2,16.9-14.2C342.1,240.5,346.6,242.7,350.7,244.6z"/>
<path class="st0" d="M388.8,273.8l4.5,6.8c-5.1,4.1-10.3,6-16.5,6c-12.5,0-20.6-9-20.6-22.6c0-7.8,1.6-13,5.4-17.3
	c3.5-4.1,8-5.8,13.8-5.8c5.1,0,9.7,1.8,12.6,4.7c4.1,4.1,5.8,9.9,5.8,19.1c0,1,0,1.4,0,2.7h-25.3v0.4c0,6.8,3.3,10.5,9.1,10.5
	C381.6,278.3,385.3,276.7,388.8,273.8z M383.4,220.5l4.9,9l-19.1,8.6l-3.5-6.2L383.4,220.5z M368.8,259H382v-0.6
	c0-3.3-0.4-4.9-1.4-6.6c-1.2-1.8-2.7-2.5-5.1-2.5C371.3,249.3,368.8,252.8,368.8,259L368.8,259z"/>
<path class="st0" d="M457.3,229.6l-5.4,8.2c-2.9-2.1-6.2-3.3-9.5-3.3c-4.1,0-8,1.9-10.1,5.1c-2.3,3.5-3.3,8.4-3.3,15.2
	c0,8.2,0.6,12.6,2.5,15.8c2.3,4.3,6.2,6.6,11.5,6.6c3.3,0,6-1,9-2.9c0.4-0.2,0.8-0.6,1.2-1l5.4,7.6c-4.7,3.9-9.7,5.4-16.5,5.4
	c-8.2,0-14.4-2.7-19.3-8.2c-4.9-5.4-7.2-12.5-7.2-21.2c0-7.4,1.4-13.2,4.1-18.5c4.7-8.6,13-13.8,22.8-13.8
	C448.4,225,454.2,226.7,457.3,229.6z"/>
<path class="st0" d="M492.7,273.8l4.5,6.8c-5.1,4.1-10.3,6-16.5,6c-12.5,0-20.6-9-20.6-22.6c0-7.8,1.6-13,5.4-17.3
	c3.5-4.1,8-5.8,13.8-5.8c5.1,0,9.7,1.8,12.6,4.7c4.1,4.1,5.8,9.9,5.8,19.1c0,1,0,1.4,0,2.7h-25.3v0.4c0,6.8,3.3,10.5,9.1,10.5
	C485.5,278.3,489.2,276.7,492.7,273.8z M472.5,259h13.2v-0.6c0-3.3-0.4-4.9-1.4-6.6c-1.2-1.8-2.7-2.5-5.1-2.5
	C475,249.3,472.5,252.8,472.5,259L472.5,259z"/>
<path class="st0" d="M515.5,222.4c0.4,2.3,0.6,5.3,0.6,11.3v34.1c0,7.6,0,8.6,0.8,9.7c0.4,0.8,1.4,1.2,2.3,1.2c0.4,0,0.8,0,1.4-0.2
	l1.9,6.8c-1.9,0.8-4.3,1.2-6.8,1.2c-4.9,0-8.8-2.3-10.1-6c-0.8-2.1-1-3.5-1-9.7v-32.5c0-5.6-0.2-9.1-0.6-13L515.5,222.4z"/>
<path class="st0" d="M524.4,246.9c2.7-1.8,4.1-2.3,7-3.5c4.3-1.8,8-2.5,11.9-2.5c7.4,0,12.5,2.7,14,7.6c0.6,1.8,0.8,3.1,0.8,7.8
	l-0.2,14.6c0,0.2,0,0.6,0,0.8c0,4.7,0.8,6.4,4.1,9l-6,7c-2.7-1.2-5.1-3.1-6.2-5.3c-1.6,1.6-1.8,1.8-2.7,2.3
	c-2.1,1.6-5.3,2.3-8.8,2.3c-9.7,0-15-4.9-15-13.6c0-10.3,7-15,21-15c0.8,0,1.4,0,2.5,0v-1.8c0-4.9-1-6.4-5.1-6.4
	c-3.7,0-8,1.8-12.6,4.9L524.4,246.9z M547,266.4h-0.6c-8,0-10.7,1.4-10.7,6.6c0,3.5,2.1,5.6,5.1,5.6c2.1,0,4.3-1.2,6-2.9L547,266.4z
	"/>
<g class="st0">
	<path d="M45.9,33.5C45.9,15,60.9,0,79.4,0s33.5,15,33.5,33.5s-15,33.5-33.5,33.5C61.1,66.9,45.9,52,45.9,33.5"/>
	<path d="M153.5,79.6c-2.1-0.2-4.1,1.2-4.9,3.3c-10.1,23.5-22,18.9-29.4,16.5c-14.2-4.3-50-22.2-69.7-22.4
		C17.1,76.7,5.3,109.9,1,126.5c-0.6,2.5,1.6,5.1,4.3,5.3c2.1,0.2,3.9-1.4,4.9-3.3c11.1-21.8,26.5-17.5,34.4-15.4
		c14.4,3.7,53.5,21,66.9,21.2c28.8,0.4,41.1-27.4,46.3-49.4C158.4,82.3,156.1,79.8,153.5,79.6z"/>
</g>
</svg>
