<?xml version="1.0" encoding="utf-8"?>
<!-- Generator: Adobe Illustrator 22.1.0, SVG Export Plug-In . SVG Version: 6.00 Build 0)  -->
<svg version="1.1" id="Capa_1" xmlns="http://www.w3.org/2000/svg" xmlns:xlink="http://www.w3.org/1999/xlink" x="0px" y="0px"
	 viewBox="0 0 276.9 350.8" style="enable-background:new 0 0 276.9 350.8;" xml:space="preserve">
<style type="text/css">
	.st0{opacity:0.13;fill:#00BFFF;}
	.st1{opacity:0.13;fill:#231F20;}
</style>
<g id="Capa_2_1_">
</g>
<polygon class="st0" points="138.5,88.2 75.7,128.1 75.7,222.7 62.3,231.2 62.3,136.7 41.2,150.1 0,176.4 0,350.8 138.5,262.7 "/>
<polygon class="st1" points="62.3,231.2 75.7,222.7 75.7,128.1 138.4,88.2 0,0 0,63.6 41.2,89.9 41.2,150.1 62.3,136.7 "/>
<polygon class="st0" points="276.9,48 276.9,0 138.5,88.2 225.6,143.6 276.9,111 276.9,63.6 209.8,106.4 209.8,90.8 "/>
<polygon class="st0" points="237.9,151.4 276.9,176.4 276.9,126.5 "/>
<polygon class="st1" points="138.5,88.2 138.5,262.7 276.9,350.8 276.9,271.4 201.7,223.4 201.7,207.7 276.9,255.7 276.9,176.4 
	225.6,143.6 "/>
</svg>
