<?xml version="1.0" encoding="utf-8"?>
<!-- Generator: Adobe Illustrator 22.1.0, SVG Export Plug-In . SVG Version: 6.00 Build 0)  -->
<svg version="1.1" id="Capa_1" xmlns="http://www.w3.org/2000/svg" xmlns:xlink="http://www.w3.org/1999/xlink" x="0px" y="0px"
	 viewBox="0 0 902.2 430.9" style="enable-background:new 0 0 902.2 430.9;" xml:space="preserve">
<style type="text/css">
	.st0{fill:none;}
	.st1{fill:#00BFFF;}
	.st2{fill:#231F20;}
</style>
<rect class="st0" width="902.2" height="430.9"/>
<g id="Capa_2_1_">
</g>
<polygon class="st1" points="754.8,94.9 692,134.8 692,229.4 678.6,237.9 678.6,143.4 657.5,156.8 616.3,183.1 616.3,357.5 
	754.8,269.4 "/>
<polygon class="st2" points="678.6,237.9 692,229.4 692,134.8 754.7,94.9 616.3,6.7 616.3,70.3 657.5,96.6 657.5,156.8 678.6,143.4 
	"/>
<polygon class="st1" points="893.2,54.7 893.2,6.7 754.8,94.9 841.9,150.3 893.2,117.7 893.2,70.3 826.1,113.1 826.1,97.5 "/>
<polygon class="st1" points="854.2,158.1 893.2,183.1 893.2,133.2 "/>
<polygon class="st2" points="754.8,94.9 754.8,269.4 893.2,357.5 893.2,278.1 818,230.1 818,214.4 893.2,262.4 893.2,183.1 
	841.9,150.3 "/>
</svg>
