<svg id="Capa_1" data-name="Capa 1" xmlns="http://www.w3.org/2000/svg" viewBox="0 0 121.75 36.58"><title>logo_2</title><rect width="121.75" height="36.58" style="fill:#fff"/><path id="_Trazado_" data-name="&lt;Trazado&gt;" d="M50.23,3.8h-2.4v7.6a3.11,3.11,0,0,1-.1,1.1,1.61,1.61,0,0,1-1.8,1.4,1.7,1.7,0,0,1-1.6-.8c-.2-.3-.2-.5-.2-1.4V3.8h-2.5V12a3.93,3.93,0,0,0,.5,2.3,4.41,4.41,0,0,0,3.8,1.6c2.6,0,3.8-1.3,4-2.3a4.47,4.47,0,0,0,.2-1.9V3.8Z" transform="translate(-35.65)" style="fill:#010202"/><path id="_Trazado_2" data-name="&lt;Trazado&gt;" d="M53.23,6.7l-2,.6a6.45,6.45,0,0,1,.3,2v6.3h2.3V9.4a2.45,2.45,0,0,1,1.6-.8c.6,0,.8.3.8,1.3v5.7h2.3V9.2a3.73,3.73,0,0,0-.2-1.2,2.13,2.13,0,0,0-2.1-1.3,4.71,4.71,0,0,0-1.6.4c-.4.2-.5.3-1,.6a4.18,4.18,0,0,0-.4-1Z" transform="translate(-35.65)" style="fill:#010202"/><path id="_Trazado_compuesto_" data-name="&lt;Trazado compuesto&gt;" d="M61.43,3.1A1.37,1.37,0,0,0,60,4.5a1.4,1.4,0,1,0,2.8,0,1.43,1.43,0,0,0-1.4-1.4Zm1.1,3.6-2.3.3v8.6h2.3Z" transform="translate(-35.65)" style="fill:#010202"/><path id="_Trazado_3" data-name="&lt;Trazado&gt;" d="M65.63,6.7l-2.4.3,3.2,8.6h1.9l3.2-8.7h-2.4l-1.2,3.7a8.17,8.17,0,0,0-.5,2.2,16.55,16.55,0,0,0-.6-2.1Z" transform="translate(-35.65)" style="fill:#010202"/><path id="_Trazado_compuesto_2" data-name="&lt;Trazado compuesto&gt;" d="M75.53,6.7a3.29,3.29,0,0,0-2.7,1.2,4.76,4.76,0,0,0-1.1,3.5c0,2.7,1.6,4.6,4.1,4.6a5.16,5.16,0,0,0,3.3-1.2l-.9-1.4a3.28,3.28,0,0,1-2.2.9c-1.2,0-1.8-.8-1.8-2.1h5v-.5A5.09,5.09,0,0,0,78,7.9a2.69,2.69,0,0,0-2.5-1.2Zm-1.3,3.6h0c0-1.2.5-1.9,1.4-1.9a1.1,1.1,0,0,1,1,.5,2.06,2.06,0,0,1,.3,1.3v.1Z" transform="translate(-35.65)" style="fill:#010202"/><path id="_Trazado_4" data-name="&lt;Trazado&gt;" d="M84.83,6.7a1.88,1.88,0,0,0-.8.2A3.34,3.34,0,0,0,82.73,8a3.37,3.37,0,0,0-.4-1.2l-2,.5a7.94,7.94,0,0,1,.3,2.6v5.8h2.3V9.5a1.87,1.87,0,0,1,1.4-.8,1.07,1.07,0,0,1,.6.2l.6-2c-.2-.2-.3-.2-.7-.2Z" transform="translate(-35.65)" style="fill:#010202"/><path id="_Trazado_5" data-name="&lt;Trazado&gt;" d="M89,6.7c-2,0-3.4,1.1-3.4,2.8a2.77,2.77,0,0,0,.5,1.6,2.82,2.82,0,0,0,1.6.9l1,.2c.9.2,1.3.5,1.3,1.1a1.13,1.13,0,0,1-1.2,1,6.67,6.67,0,0,1-2.9-1l-.8,1.7a9,9,0,0,0,3.5,1c2.3,0,3.8-1.2,3.8-3.1a2.46,2.46,0,0,0-.5-1.5c-.3-.4-.6-.7-1.8-1L89,10.1c-.8-.2-1.1-.4-1.1-.9s.4-.9,1.1-.9a4.83,4.83,0,0,1,2.1.6l.8-1.6A7.46,7.46,0,0,0,89,6.7Z" transform="translate(-35.65)" style="fill:#010202"/><path id="_Trazado_compuesto_3" data-name="&lt;Trazado compuesto&gt;" d="M95,3.1a1.37,1.37,0,0,0-1.4,1.4,1.4,1.4,0,0,0,2.8,0A1.43,1.43,0,0,0,95,3.1Zm1.1,3.6-2.4.3v8.6H96V6.7Z" transform="translate(-35.65)" style="fill:#010202"/><path id="_Trazado_compuesto_4" data-name="&lt;Trazado compuesto&gt;" d="M102.83,3V6c0,.5.1,1.1.1,1.3a2.54,2.54,0,0,0-1.6-.5c-2.2,0-3.8,1.9-3.8,4.6s1.4,4.5,3.6,4.5a2.57,2.57,0,0,0,2-.8c.1.2.1.4.2.5h2c-.2-.3-.3-1-.3-3.2V3.3Zm-1.1,11c-1.2,0-1.6-.6-1.6-2.5s.4-2.8,1.4-2.8a2.08,2.08,0,0,1,1.2.5v4.2a1.44,1.44,0,0,1-1,.6Z" transform="translate(-35.65)" style="fill:#010202"/><path id="_Trazado_compuesto_5" data-name="&lt;Trazado compuesto&gt;" d="M110.63,6.7a6.87,6.87,0,0,0-2.4.5,6.11,6.11,0,0,0-1.4.7l1,1.7a5.4,5.4,0,0,1,2.5-1c.9,0,1,.3,1,1.3v.4h-.5q-4.2,0-4.2,3c0,1.8,1.1,2.7,3,2.7a3.45,3.45,0,0,0,1.8-.5c.2-.1.2-.2.5-.5a2.58,2.58,0,0,0,1.2,1.1l1.2-1.4a2,2,0,0,1-.8-1.8v-.2l.1-3a4.66,4.66,0,0,0-.2-1.6c-.3-.8-1.3-1.4-2.8-1.4Zm-.5,7.6a1,1,0,0,1-1-1.1c0-1,.5-1.3,2.1-1.3h.1l-.1,1.9a1.43,1.43,0,0,1-1.1.5Z" transform="translate(-35.65)" style="fill:#010202"/><path id="_Trazado_compuesto_6" data-name="&lt;Trazado compuesto&gt;" d="M120.43,3V6c0,.5.1,1.1.1,1.3a2.54,2.54,0,0,0-1.6-.5c-2.2,0-3.8,1.9-3.8,4.6s1.4,4.5,3.6,4.5a2.57,2.57,0,0,0,2-.8c.1.2.1.4.2.5h2c-.2-.3-.3-1-.3-3.2V3.3Zm-1.1,11c-1.2,0-1.6-.6-1.6-2.5s.4-2.8,1.4-2.8a2.08,2.08,0,0,1,1.2.5v4.2a1.44,1.44,0,0,1-1,.6Z" transform="translate(-35.65)" style="fill:#010202"/><path id="_Trazado_6" data-name="&lt;Trazado&gt;" d="M46.63,18.5A5.29,5.29,0,0,0,42,21.2a8.1,8.1,0,0,0-.8,3.7,6.07,6.07,0,0,0,1.4,4.2,5.07,5.07,0,0,0,3.9,1.7,4.72,4.72,0,0,0,3.3-1.1l-1.1-1.5c-.1.1-.2.2-.3.2a3,3,0,0,1-1.8.6,2.65,2.65,0,0,1-2.3-1.3,6.18,6.18,0,0,1-.5-3.2,6.29,6.29,0,0,1,.6-3.1,2.46,2.46,0,0,1,2-1,3.53,3.53,0,0,1,1.9.6l1.1-1.6c-.4-.6-1.6-.9-2.8-.9Z" transform="translate(-35.65)" style="fill:#010202"/><path id="_Trazado_compuesto_7" data-name="&lt;Trazado compuesto&gt;" d="M54,21.7a6.87,6.87,0,0,0-2.4.5,6.11,6.11,0,0,0-1.4.7l1,1.7a5.4,5.4,0,0,1,2.5-1c.9,0,1,.3,1,1.3v.4h-.5q-4.2,0-4.2,3c0,1.8,1.1,2.7,3,2.7a3.45,3.45,0,0,0,1.8-.5c.2-.1.2-.2.5-.5a2.58,2.58,0,0,0,1.2,1.1l1.2-1.4a2,2,0,0,1-.8-1.8v-.2l.1-3a4.66,4.66,0,0,0-.2-1.6c-.3-.9-1.3-1.4-2.8-1.4Zm-.5,7.6a1,1,0,0,1-1-1.1c0-1,.5-1.3,2.1-1.3h.1l-.1,1.9a2.22,2.22,0,0,1-1.1.5Z" transform="translate(-35.65)" style="fill:#010202"/><path id="_Trazado_7" data-name="&lt;Trazado&gt;" d="M67.83,21.7a3.21,3.21,0,0,0-2.5,1.1c-.2-.2-.2-.3-.3-.4a2.41,2.41,0,0,0-1.8-.7,2.72,2.72,0,0,0-2.1.9,9.44,9.44,0,0,0-.3-.9l-2.1.6a5.32,5.32,0,0,1,.3,2.3v6.1h2.3V24.3a2.63,2.63,0,0,1,1.5-.6c.6,0,.8.3.8,1.3v5.7h2.2V24.4a3.16,3.16,0,0,1,1.5-.8c.6,0,.7.2.7,1.2v5.8h2.2V24.3c0-1.2-.2-1.7-.6-2.1a3.74,3.74,0,0,0-1.8-.5Z" transform="translate(-35.65)" style="fill:#010202"/><path id="_Trazado_compuesto_8" data-name="&lt;Trazado compuesto&gt;" d="M73.23,18a1.4,1.4,0,1,0,1.4,1.4,1.37,1.37,0,0,0-1.4-1.4Zm1.1,3.6L72,22v8.6h2.3Z" transform="translate(-35.65)" style="fill:#010202"/><path id="_Trazado_8" data-name="&lt;Trazado&gt;" d="M78.43,17.9l-2.4.5a20.12,20.12,0,0,1,.1,2.6v6.5a7.47,7.47,0,0,0,.2,2,2,2,0,0,0,2,1.2,4.44,4.44,0,0,0,1.3-.2l-.4-1.4a.37.37,0,0,1-.3.1.76.76,0,0,1-.5-.2c-.2-.2-.2-.4-.2-1.9V20.3a5.5,5.5,0,0,0,.2-2.4Z" transform="translate(-35.65)" style="fill:#010202"/><path id="_Trazado_compuesto_9" data-name="&lt;Trazado compuesto&gt;" d="M83.93,21.7c-2.4,0-3.9,1.8-3.9,4.6s1.6,4.6,3.9,4.6a3.9,3.9,0,0,0,2.9-1.2,4.66,4.66,0,0,0,1.1-3.4,4.55,4.55,0,0,0-1-3.2,3.6,3.6,0,0,0-3-1.4Zm0,7.4a1.31,1.31,0,0,1-1.2-.7,5.73,5.73,0,0,1-.3-2.2,7.75,7.75,0,0,1,.2-1.9,1.29,1.29,0,0,1,1.2-.9,1.23,1.23,0,0,1,1,.5,4.27,4.27,0,0,1,.5,2.4c0,2-.4,2.8-1.4,2.8Z" transform="translate(-35.65)" style="fill:#010202"/><path id="_Trazado_9" data-name="&lt;Trazado&gt;" d="M95.43,18.7H93v9.8a8.21,8.21,0,0,1-.2,2.2,3.15,3.15,0,0,1-1.4,1.4l1.1,1.2a4.33,4.33,0,0,0,2.8-2.8,8.6,8.6,0,0,0,.2-2.3l-.1-9.5Z" transform="translate(-35.65)" style="fill:#010202"/><path id="_Trazado_compuesto_10" data-name="&lt;Trazado compuesto&gt;" d="M100.33,21.7c-2.4,0-3.9,1.8-3.9,4.6s1.6,4.6,3.9,4.6a3.9,3.9,0,0,0,2.9-1.2,4.66,4.66,0,0,0,1.1-3.4,4.55,4.55,0,0,0-1-3.2,3.48,3.48,0,0,0-3-1.4Zm.1,7.4a1.31,1.31,0,0,1-1.2-.7,5.73,5.73,0,0,1-.3-2.2,7.75,7.75,0,0,1,.2-1.9,1.29,1.29,0,0,1,1.2-.9,1.23,1.23,0,0,1,1,.5,4.27,4.27,0,0,1,.5,2.4c0,2-.4,2.8-1.4,2.8Z" transform="translate(-35.65)" style="fill:#010202"/><path id="_Trazado_10" data-name="&lt;Trazado&gt;" d="M108.53,21.6c-2,0-3.4,1.1-3.4,2.8a2.77,2.77,0,0,0,.5,1.6,2.82,2.82,0,0,0,1.6.9l1,.2c.9.2,1.3.5,1.3,1.1s-.5,1-1.2,1a6.67,6.67,0,0,1-2.9-1l-.8,1.7a9,9,0,0,0,3.5,1c2.3,0,3.8-1.2,3.8-3.1a2.46,2.46,0,0,0-.5-1.5c-.3-.4-.6-.7-1.8-1l-1.1-.3c-.8-.2-1.1-.4-1.1-.9s.4-.9,1.1-.9a4.83,4.83,0,0,1,2.1.6l.8-1.6a10,10,0,0,0-2.9-.6Z" transform="translate(-35.65)" style="fill:#010202"/><path id="_Trazado_compuesto_11" data-name="&lt;Trazado compuesto&gt;" d="M118.23,17.6l-3.5,2.2.7,1.3,3.8-1.7Zm-1.6,4.1a3.29,3.29,0,0,0-2.7,1.2,4.76,4.76,0,0,0-1.1,3.5c0,2.7,1.6,4.6,4.1,4.6a5.16,5.16,0,0,0,3.3-1.2l-.9-1.4a3.28,3.28,0,0,1-2.2.9c-1.2,0-1.8-.8-1.8-2.1V27h5v-.5a5.09,5.09,0,0,0-1.2-3.8,3,3,0,0,0-2.5-1Zm-1.3,3.6h0c0-1.2.5-1.9,1.4-1.9a1.1,1.1,0,0,1,1,.5,2.06,2.06,0,0,1,.3,1.3v.1Z" transform="translate(-35.65)" style="fill:#010202"/><path id="_Trazado_11" data-name="&lt;Trazado&gt;" d="M130.13,18.5a5.29,5.29,0,0,0-4.6,2.7,8.1,8.1,0,0,0-.8,3.7,6.07,6.07,0,0,0,1.4,4.2,5.07,5.07,0,0,0,3.9,1.7,4.72,4.72,0,0,0,3.3-1.1l-1.1-1.5c-.1.1-.2.2-.3.2a3,3,0,0,1-1.8.6,2.65,2.65,0,0,1-2.3-1.3,6.18,6.18,0,0,1-.5-3.2,6.29,6.29,0,0,1,.6-3.1,2.46,2.46,0,0,1,2-1,3.53,3.53,0,0,1,1.9.6l1.1-1.6a3.93,3.93,0,0,0-2.8-.9Z" transform="translate(-35.65)" style="fill:#010202"/><path id="_Trazado_compuesto_12" data-name="&lt;Trazado compuesto&gt;" d="M137.53,21.7a3.29,3.29,0,0,0-2.7,1.2,4.76,4.76,0,0,0-1.1,3.5c0,2.7,1.6,4.6,4.1,4.6a5.16,5.16,0,0,0,3.3-1.2l-.9-1.4a3.34,3.34,0,0,1-2.3.9c-1.2,0-1.8-.8-1.8-2.1V27h5v-.5a5.09,5.09,0,0,0-1.2-3.8,3,3,0,0,0-2.4-1Zm-1.4,3.6h0c0-1.2.5-1.9,1.3-1.9a1.1,1.1,0,0,1,1,.5,2.06,2.06,0,0,1,.3,1.3v.1Z" transform="translate(-35.65)" style="fill:#010202"/><path id="_Trazado_12" data-name="&lt;Trazado&gt;" d="M144.73,17.9l-2.4.5a20.12,20.12,0,0,1,.1,2.6v6.5a7.47,7.47,0,0,0,.2,2,2,2,0,0,0,2,1.2,5.9,5.9,0,0,0,1.4-.2l-.4-1.4a.37.37,0,0,1-.3.1.76.76,0,0,1-.5-.2c-.2-.2-.2-.4-.2-1.9V20.3a6.81,6.81,0,0,0,.1-2.4Z" transform="translate(-35.65)" style="fill:#010202"/><path id="_Trazado_compuesto_13" data-name="&lt;Trazado compuesto&gt;" d="M150.43,21.7a6.87,6.87,0,0,0-2.4.5,6.11,6.11,0,0,0-1.4.7l1,1.7a5.4,5.4,0,0,1,2.5-1c.9,0,1,.3,1,1.3v.4h-.5q-4.2,0-4.2,3c0,1.8,1.1,2.7,3,2.7a3.45,3.45,0,0,0,1.8-.5c.2-.1.2-.2.5-.5a2.58,2.58,0,0,0,1.2,1.1l1.2-1.4a2,2,0,0,1-.8-1.8v-.2l.1-3a4.66,4.66,0,0,0-.2-1.6c-.3-.9-1.4-1.4-2.8-1.4Zm-.6,7.6a1,1,0,0,1-1-1.1c0-1,.5-1.3,2.1-1.3h.1v1.9a2.57,2.57,0,0,1-1.2.5Z" transform="translate(-35.65)" style="fill:#010202"/></svg>