<svg id="Capa_1" data-name="Capa 1" xmlns="http://www.w3.org/2000/svg" viewBox="0 0 157.39 36.58"><title>logo_1</title><rect width="157.39" height="36.58" style="fill:#fff"/><path id="_Trazado_" data-name="&lt;Trazado&gt;" d="M20.93,3.7a6.7,6.7,0,1,0,6.7,6.7,6.7,6.7,0,0,0-6.7-6.7Z" style="fill:#010202"/><path id="_Trazado_2" data-name="&lt;Trazado&gt;" d="M14.83,19.2c-6.4,0-8.8,6.6-9.7,9.9A1,1,0,0,0,6,30.2h.1a1.15,1.15,0,0,0,.9-.6c1.4-2.8,3.2-3.4,4.7-3.4a6.65,6.65,0,0,1,2.2.4c2.9.8,10.7,4.2,13.5,4.2h.1c5.7,0,8.2-5.5,9.2-9.9.1-.5-.4-1-.9-1.1h-.1a1,1,0,0,0-.9.6c-1.3,3-2.7,3.7-4,3.7a5.33,5.33,0,0,1-1.9-.4c-2.8-.9-10-4.5-13.9-4.5Z" style="fill:#010202"/></svg>