<?xml version="1.0" encoding="utf-8"?>
<!-- Generator: Adobe Illustrator 22.1.0, SVG Export Plug-In . SVG Version: 6.00 Build 0)  -->
<svg version="1.1" id="Layer_1" xmlns="http://www.w3.org/2000/svg" xmlns:xlink="http://www.w3.org/1999/xlink" x="0px" y="0px"
	 viewBox="0 0 19.1 20.2" style="enable-background:new 0 0 19.1 20.2;" xml:space="preserve">
<style type="text/css">
	.st0{fill:#C7C8CA;}
</style>
<g id="Layer_x0020_1_1_">
	<g id="_262981592">
		<path id="_262981904" class="st0" d="M12.4,0c1.1,0,2.1,0.4,2.8,1.2C16,1.9,16.4,2.9,16.4,4S16,6.1,15.2,6.9
			C14.5,7.6,13.5,8,12.4,8s-2.1-0.4-2.8-1.2S8.4,5.1,8.4,4s0.4-2.1,1.2-2.8C10.3,0.4,11.3,0,12.4,0z M14.6,1.8
			c-0.6-0.6-1.4-0.9-2.2-0.9s-1.7,0.4-2.2,0.9C9.6,2.4,9.2,3.1,9.2,4s0.4,1.7,0.9,2.2c0.6,0.6,1.4,0.9,2.2,0.9
			c0.9,0,1.7-0.4,2.2-0.9s0.9-1.4,0.9-2.2S15.2,2.4,14.6,1.8z"/>
		<path id="_262982096" class="st0" d="M19.1,13.8v6v0.5h-0.5H3.1l-0.2,0c-0.6-0.3-1-0.7-1.1-1.2c-0.1-0.2-0.1-0.5-0.1-0.7
			c0-0.2,0.1-0.5,0.2-0.7c0.2-0.5,0.6-0.8,1.1-1l0.2,0h5.3c0-1.6,0.3-3,0.7-4.1c0.5-1.3,1.2-2.3,2.1-2.9l0,0C13.3,8.4,15,8.2,16.3,9
			c1.3,0.7,2.2,2.3,2.7,4.7L19.1,13.8L19.1,13.8z M18.1,19.3v-5.4c-0.5-2.1-1.2-3.5-2.3-4c-1-0.6-2.4-0.4-4.1,0.5
			c-0.8,0.5-1.3,1.3-1.7,2.4c-0.4,1.1-0.6,2.6-0.6,4.3l0,0.5H8.9H3.2c-0.2,0.1-0.4,0.3-0.5,0.5c0,0.1-0.1,0.2-0.1,0.4
			c0,0.1,0,0.2,0.1,0.4c0.1,0.2,0.3,0.5,0.5,0.6L18.1,19.3L18.1,19.3z"/>
		<path id="_262981952" class="st0" d="M11.5,19.5c0,0.2,0.1,0.5,0.4,0.5c0.2,0,0.5-0.1,0.5-0.4l0.7-4.6c0-0.2-0.1-0.5-0.4-0.5
			c-0.2,0-0.5,0.1-0.5,0.4L11.5,19.5L11.5,19.5z"/>
	</g>
	<path class="st0" d="M0.6,1.1l1.6-0.6l0.4-0.1l0.1,0.4l3.8,10.5l0.1,0.4l-0.4,0.1l-1.6,0.6l-0.4,0.1l-0.1-0.4L0.3,1.6L0.2,1.2
		C0.2,1.2,0.6,1.1,0.6,1.1z M2.1,1.4L1.3,1.7l3.5,9.7l0.8-0.3C5.6,11.2,2.1,1.4,2.1,1.4z"/>
	<g id="_262981208">
		<polygon id="_262981544" class="st0" points="3.5,8.2 1.6,15.5 0.8,15.2 2.7,8 		"/>
		<polygon id="_262981088" class="st0" points="0,15.1 3.9,15.1 3.9,15.9 0,15.9 		"/>
	</g>
</g>
</svg>
