<?xml version="1.0" encoding="utf-8"?>
<!-- Generator: Adobe Illustrator 25.0.0, SVG Export Plug-In . SVG Version: 6.00 Build 0)  -->
<svg version="1.1" id="Layer_1" xmlns="http://www.w3.org/2000/svg" xmlns:xlink="http://www.w3.org/1999/xlink" x="0px" y="0px"
	 viewBox="0 0 491.52 491.52" style="enable-background:new 0 0 491.52 491.52;" xml:space="preserve">
<style type="text/css">
	.st0{fill:#ffffff;}
</style>
<g id="Layer_x0020_1">
	<g id="_262982048">
		<path id="_262982696" class="st0" d="M69.12,95.04H422.4c4.24,0,7.68,3.44,7.68,7.68v216.96c0,4.24-3.44,7.68-7.68,7.68H69.12
			c-4.24,0-7.68-3.44-7.68-7.68V102.72C61.44,98.48,64.88,95.04,69.12,95.04L69.12,95.04z M414.72,110.4H76.8V312h337.92V110.4
			L414.72,110.4z"/>
		<polygon id="_262983104" class="st0" points="168.96,381.12 322.56,381.12 322.56,396.48 168.96,396.48 		"/>
		<polygon id="_262982648" class="st0" points="221.54,319.68 221.54,388.8 206.18,388.8 206.18,319.68 		"/>
		<polygon id="_262983248" class="st0" points="285.34,319.68 285.34,388.8 269.98,388.8 269.98,319.68 		"/>
		<path id="_262983152" class="st0" d="M99.84,130.56h152.14h7.68v7.68v88.08V234h-7.68H99.84h-7.68v-7.68v-88.08v-7.68
			C92.16,130.56,99.84,130.56,99.84,130.56z M244.3,145.92H107.52v72.72H244.3V145.92z"/>
		<path id="_262983272" class="st0" d="M179.19,232.18c2.1-3.66,0.84-8.34-2.82-10.44c-3.66-2.1-8.34-0.84-10.44,2.82l-23.34,40.43
			c-2.1,3.66-0.84,8.34,2.82,10.44c3.66,2.1,8.34,0.84,10.44-2.82L179.19,232.18z"/>
		<path id="_262983200" class="st0" d="M185.89,224.53c-2.12-3.66-6.81-4.91-10.47-2.79c-3.66,2.12-4.91,6.81-2.79,10.47
			l23.34,40.43c2.12,3.66,6.81,4.91,10.47,2.79c3.66-2.12,4.91-6.81,2.79-10.47L185.89,224.53z"/>
		<path id="_262982216" class="st0" d="M339.5,130.56c11.78,0,22.45,4.78,30.17,12.5c7.72,7.72,12.5,18.39,12.5,30.17
			c0,11.78-4.78,22.45-12.5,30.17c-7.72,7.72-18.39,12.5-30.17,12.5c-11.78,0-22.45-4.78-30.17-12.5
			c-7.72-7.72-12.5-18.39-12.5-30.17c0-11.78,4.78-22.45,12.5-30.17C317.05,135.33,327.72,130.56,339.5,130.56z M358.8,153.92
			c-4.94-4.94-11.77-8-19.31-8c-7.54,0-14.37,3.06-19.31,8c-4.94,4.94-8,11.77-8,19.31c0,7.54,3.06,14.37,8,19.31
			c4.94,4.94,11.77,8,19.31,8c7.54,0,14.37-3.06,19.31-8c4.94-4.94,8-11.77,8-19.31C366.8,165.68,363.74,158.86,358.8,153.92z"/>
		<path id="_262982144" class="st0" d="M303.42,222.21h72.15c6.63,0,12.65,2.71,17.01,7.07c4.36,4.36,7.07,10.38,7.07,17.01v44.82
			v7.68h-7.68H287.02h-7.68v-7.68v-44.82c0-6.63,2.71-12.65,7.07-17.01C290.77,224.92,296.79,222.21,303.42,222.21L303.42,222.21z
			 M375.57,237.57h-72.15c-2.39,0-4.57,0.98-6.15,2.57c-1.58,1.58-2.57,3.76-2.57,6.15v37.14h89.59v-37.14
			c0-2.39-0.98-4.57-2.57-6.15C380.14,238.55,377.96,237.57,375.57,237.57L375.57,237.57z"/>
	</g>
</g>
</svg>
