<?xml version="1.0" encoding="utf-8"?>
<!-- Generator: Adobe Illustrator 25.0.0, SVG Export Plug-In . SVG Version: 6.00 Build 0)  -->
<svg version="1.1" id="Layer_1" xmlns="http://www.w3.org/2000/svg" xmlns:xlink="http://www.w3.org/1999/xlink" x="0px" y="0px"
	 viewBox="0 0 491.52 491.52" style="enable-background:new 0 0 491.52 491.52;" xml:space="preserve">
<style type="text/css">
	.st0{fill:#ffffff;}
</style>
<g id="Layer_x0020_1">
	<g id="_262981592">
		<path id="_262981904" class="st0" d="M298.33,61.44c19.82,0,37.76,8.03,50.75,21.02c12.99,12.99,21.02,30.93,21.02,50.75
			s-8.03,37.76-21.02,50.75c-12.99,12.99-30.93,21.02-50.75,21.02c-19.82,0-37.76-8.03-50.75-21.02
			c-12.99-12.99-21.02-30.93-21.02-50.75s8.03-37.76,21.02-50.75C260.57,69.47,278.51,61.44,298.33,61.44z M338.22,93.32
			c-10.21-10.21-24.31-16.52-39.89-16.52s-29.68,6.31-39.89,16.52c-10.21,10.21-16.52,24.31-16.52,39.89s6.31,29.68,16.52,39.89
			c10.21,10.21,24.31,16.52,39.89,16.52s29.68-6.31,39.89-16.52s16.52-24.31,16.52-39.89S348.43,103.53,338.22,93.32z"/>
		<path id="_262982096" class="st0" d="M417.05,307.55v106.39v8.45h-8.46H132.55l-3.43-0.76c-10.64-4.73-17.25-12.71-20.23-21.53
			c-1.4-4.14-1.98-8.46-1.77-12.7c0.2-4.25,1.19-8.45,2.93-12.35c3.59-8.06,10.33-14.78,19.84-17.99l2.68-0.46h95.26
			c0.87-28.63,4.81-53.14,12-73.24c8.19-22.9,20.6-40.28,37.5-51.79l0.66-0.4c36.7-20.41,66.59-23.18,90.19-9.71
			c23.1,13.18,39.11,41.72,48.65,84.26L417.05,307.55L417.05,307.55z M400.14,405.49v-97.14c-8.47-37.16-21.75-61.64-40.29-72.22
			c-18.12-10.34-42.36-7.54-73.25,9.54c-13.71,9.42-23.92,23.98-30.86,43.37c-7.28,20.36-10.95,45.83-11.25,76.09l-0.08,8.39h-8.34
			H134.01c-4.06,1.72-6.97,4.79-8.58,8.41c-0.87,1.96-1.37,4.09-1.47,6.28c-0.1,2.19,0.19,4.42,0.92,6.56
			c1.41,4.19,4.54,8.07,9.56,10.73L400.14,405.49L400.14,405.49z"/>
		<path id="_262981952" class="st0" d="M283.03,410.5c-0.65,4.18,2.21,8.08,6.39,8.73c4.18,0.65,8.08-2.21,8.73-6.39l12.82-82.95
			c0.65-4.18-2.21-8.08-6.39-8.73c-4.18-0.65-8.08,2.21-8.73,6.39L283.03,410.5L283.03,410.5z"/>
	</g>
	<path class="st0" d="M87.65,80.53l28.93-10.32l7.23-2.58l2.58,7.23l67.09,188.07l2.58,7.23l-7.23,2.58l-28.93,10.32l-7.23,2.58
		l-2.58-7.23L83,90.34l-2.58-7.23C80.42,83.11,87.65,80.53,87.65,80.53z M114.51,87.25l-14.47,5.16l61.93,173.61l14.47-5.16
		C176.44,260.86,114.51,87.25,114.51,87.25z"/>
	<g id="_262981208">
		<polygon id="_262981544" class="st0" points="140.04,208.6 105.53,337.38 90.71,333.42 125.22,204.64 		"/>
		<polygon id="_262981088" class="st0" points="76.8,330.24 145.92,330.24 145.92,345.6 76.8,345.6 		"/>
	</g>
</g>
</svg>
