<?xml version="1.0" encoding="utf-8"?>
<!-- Generator: Adobe Illustrator 25.0.0, SVG Export Plug-In . SVG Version: 6.00 Build 0)  -->
<svg version="1.1" id="Layer_1" xmlns="http://www.w3.org/2000/svg" xmlns:xlink="http://www.w3.org/1999/xlink" x="0px" y="0px"
	 viewBox="0 0 491.52 491.52" style="enable-background:new 0 0 491.52 491.52;" xml:space="preserve">
<style type="text/css">
	.st0{fill:#ffffff;}
</style>
<g id="Layer_x0020_1">
	<g id="_430483544">
		<path id="_430484312" class="st0" d="M93.29,128.73h209.42c-1.16,1-2.3,2.04-3.39,3.13c-3.69,3.69-6.83,7.8-9.37,12.23H93.66
			v140.76h149.16v15.36H93.29c-4.1,0-7.84-1.68-10.57-4.4l0,0l-0.02-0.02l-0.02-0.02l0,0c-2.72-2.73-4.4-6.47-4.4-10.57V143.73
			c0-4.13,1.69-7.88,4.4-10.6C85.41,130.42,89.16,128.73,93.29,128.73L93.29,128.73z"/>
		<path id="_430484072" class="st0" d="M68.37,306.65c-4.24,0-7.68,3.44-7.68,7.68s3.44,7.68,7.68,7.68h174.45v-15.36L68.37,306.65
			L68.37,306.65z"/>
		<path id="_430484192" class="st0" d="M340.66,122.42c14.02,0,26.72,5.68,35.91,14.87c9.19,9.19,14.87,21.89,14.87,35.91
			c0,14.02-5.68,26.72-14.87,35.91c-9.19,9.19-21.89,14.87-35.91,14.87c-14.02,0-26.72-5.68-35.91-14.87
			c-9.19-9.19-14.87-21.89-14.87-35.91c0-14.02,5.68-26.72,14.87-35.91C313.95,128.1,326.64,122.42,340.66,122.42L340.66,122.42z
			 M365.71,148.15c-6.41-6.41-15.27-10.37-25.05-10.37c-9.78,0-18.64,3.96-25.05,10.37c-6.41,6.41-10.37,15.27-10.37,25.05
			c0,9.78,3.96,18.64,10.37,25.05c6.41,6.41,15.27,10.37,25.05,10.37c9.78,0,18.64-3.96,25.05-10.37
			c6.41-6.41,10.37-15.27,10.37-25.05C376.09,163.42,372.12,154.56,365.71,148.15L365.71,148.15z"/>
		<path id="_430483880" class="st0" d="M281.27,238.03h118.79c8.47,0,16.16,3.46,21.74,9.03c5.57,5.57,9.03,13.27,9.03,21.74v92.62
			v7.68h-7.68H258.18h-7.68v-7.68V268.8c0-8.47,3.46-16.16,9.03-21.74C265.11,241.49,272.8,238.03,281.27,238.03L281.27,238.03z
			 M400.06,253.39H281.27c-4.23,0-8.08,1.74-10.88,4.53c-2.8,2.8-4.53,6.65-4.53,10.88v84.94h149.61V268.8
			c0-4.23-1.74-8.08-4.53-10.88C408.14,255.13,404.29,253.39,400.06,253.39L400.06,253.39z"/>
	</g>
	<path class="st0" d="M185.93,239.18h-13.42c-0.04-2.35-0.05-3.76-0.05-4.28c0-5.26,0.72-9.58,2.16-12.97
		c1.44-3.41,4.33-7.21,8.64-11.47c4.31-4.24,6.9-7.02,7.72-8.34c1.31-2.06,1.96-4.37,1.96-6.87c0-3.48-1.15-6.45-3.45-8.95
		c-2.3-2.48-5.39-3.72-9.29-3.72c-3.75,0-6.9,1.3-9.43,3.89c-2.51,2.59-4.26,6.54-5.21,11.84l-13.56-2.04
		c0.38-7.6,3.05-14.06,8.01-19.36c4.98-5.3,11.48-7.95,19.56-7.95c8.48,0,15.23,2.69,20.26,8.06c5.01,5.37,7.53,11.6,7.53,18.75
		c0,3.93-0.93,7.67-2.77,11.19c-1.85,3.52-5.78,8.32-11.82,14.38c-3.13,3.15-5.07,5.67-5.82,7.58
		C186.2,230.84,185.86,234.25,185.93,239.18z M172.51,263.23v-17.88h14.78v17.88H172.51z"/>
</g>
</svg>
