<?xml version="1.0" encoding="utf-8"?>
<!-- Generator: Adobe Illustrator 25.0.0, SVG Export Plug-In . SVG Version: 6.00 Build 0)  -->
<svg version="1.1" id="Layer_1" xmlns="http://www.w3.org/2000/svg" xmlns:xlink="http://www.w3.org/1999/xlink" x="0px" y="0px"
	 viewBox="0 0 491.52 491.52" style="enable-background:new 0 0 491.52 491.52;" xml:space="preserve">
<style type="text/css">
	.st0{fill:#ffffff;}
</style>
<g id="Layer_x0020_1">
	<g id="_262978664">
		<path id="_262978592" class="st0" d="M245.76,65.28c20.33,0,38.74,8.24,52.07,21.57c13.33,13.33,21.57,31.73,21.57,52.07
			c0,20.33-8.24,38.74-21.57,52.07c-13.33,13.33-31.73,21.57-52.07,21.57c-20.33,0-38.74-8.24-52.07-21.57
			c-13.33-13.33-21.57-31.73-21.57-52.07s8.24-38.74,21.57-52.07C207.02,73.52,225.43,65.28,245.76,65.28z M286.97,97.71
			c-10.54-10.54-25.11-17.07-41.21-17.07s-30.66,6.52-41.21,17.07c-10.54,10.54-17.07,25.11-17.07,41.21s6.52,30.66,17.07,41.21
			c10.54,10.54,25.11,17.07,41.21,17.07s30.66-6.52,41.21-17.07c10.54-10.54,17.07-25.11,17.07-41.21S297.51,108.25,286.97,97.71
			L286.97,97.71z"/>
		<path id="_262978328" class="st0" d="M189.88,219.53h111.76c20.92,0,39.93,8.55,53.7,22.33c13.78,13.78,22.33,32.79,22.33,53.7
			v92.52v7.33h-7.33h-68.75c2.86-4.54,5.19-9.46,6.88-14.66h54.54v-85.19c0-16.87-6.91-32.21-18.03-43.34
			c-11.13-11.13-26.47-18.03-43.34-18.03H189.88c-16.87,0-32.21,6.91-43.34,18.03c-11.13,11.13-18.03,26.47-18.03,43.34v85.19h54.54
			c1.7,5.2,4.02,10.12,6.88,14.66h-68.75h-7.33v-7.33v-92.52c0-20.92,8.55-39.93,22.33-53.7
			C149.96,228.08,168.97,219.53,189.88,219.53L189.88,219.53z"/>
		<path id="_262978736" class="st0" d="M245.76,294.33c18.21,0,34.7,7.38,46.64,19.32c11.94,11.94,19.32,28.42,19.32,46.64
			s-7.38,34.7-19.32,46.64c-11.94,11.94-28.42,19.32-46.64,19.32s-34.7-7.38-46.64-19.32c-11.94-11.94-19.32-28.42-19.32-46.64
			s7.38-34.7,19.32-46.64C211.06,301.71,227.55,294.33,245.76,294.33L245.76,294.33z M282.03,324.01
			c-9.28-9.28-22.11-15.02-36.27-15.02c-14.17,0-26.99,5.74-36.27,15.02c-9.28,9.28-15.02,22.11-15.02,36.27
			c0,14.17,5.74,26.99,15.02,36.27c9.28,9.28,22.11,15.02,36.27,15.02c14.17,0,26.99-5.74,36.27-15.02
			c9.28-9.28,15.02-22.11,15.02-36.27C297.06,346.12,291.32,333.29,282.03,324.01L282.03,324.01z"/>
		<path id="_262978280" class="st0" d="M266.09,366.91l-16.49,9.52l-16.49,9.52l-11.52,6.65v-13.28v-19.04v-19.04v-13.28l11.52,6.65
			l16.49,9.52l-0.01,0.01l16.47,9.51l11.5,6.64L266.09,366.91L266.09,366.91z M241.92,363.17l5.02-2.9l-4.99-2.88h-0.03l-4.97-2.87
			v5.76v5.76L241.92,363.17L241.92,363.17z"/>
	</g>
</g>
</svg>
