<?xml version="1.0" encoding="utf-8"?>
<!-- Generator: Adobe Illustrator 25.0.0, SVG Export Plug-In . SVG Version: 6.00 Build 0)  -->
<svg version="1.1" id="Layer_1" xmlns="http://www.w3.org/2000/svg" xmlns:xlink="http://www.w3.org/1999/xlink" x="0px" y="0px"
	 viewBox="0 0 491.52 491.52" style="enable-background:new 0 0 491.52 491.52;" xml:space="preserve">
<style type="text/css">
	.st0{fill:#ffffff;}
</style>
<g id="Layer_x0020_1">
	<path class="st0" d="M69.12,61.44h84.48h7.68v7.68V422.4v7.68h-7.68H69.12h-7.68v-7.68V69.12v-7.68L69.12,61.44L69.12,61.44z
		 M145.92,76.8H76.8v337.92h69.12C145.92,414.72,145.92,76.8,145.92,76.8z"/>
	<polygon class="st0" points="84.48,99.84 138.24,99.84 138.24,115.2 84.48,115.2 	"/>
	<polygon class="st0" points="84.48,130.56 138.24,130.56 138.24,145.92 84.48,145.92 	"/>
	<polygon class="st0" points="84.48,330.24 138.24,330.24 138.24,345.6 84.48,345.6 	"/>
	<polygon class="st0" points="84.48,360.96 138.24,360.96 138.24,376.32 84.48,376.32 	"/>
	<path class="st0" d="M180.48,61.44h84.48h7.68v7.68V422.4v7.68h-7.68h-84.48h-7.68v-7.68V69.12v-7.68L180.48,61.44L180.48,61.44z
		 M257.28,76.8h-69.12v337.92h69.12C257.28,414.72,257.28,76.8,257.28,76.8z"/>
	<polygon class="st0" points="195.84,115.2 249.6,115.2 249.6,130.56 195.84,130.56 	"/>
	<polygon class="st0" points="195.84,360.96 249.6,360.96 249.6,376.32 195.84,376.32 	"/>
	<polygon class="st0" points="291.84,61.44 376.32,61.44 384,61.44 384,69.12 384,202.96 368.64,190.68 368.64,76.8 299.52,76.8 
		299.52,414.72 368.64,414.72 368.64,281.89 373.93,279.13 384,298.44 384,422.4 384,430.08 376.32,430.08 291.84,430.08 
		284.16,430.08 284.16,422.4 284.16,69.12 284.16,61.44 	"/>
	<g id="_434842544">
		<polygon id="_434842760" class="st0" points="307.2,99.84 360.96,99.84 360.96,115.2 307.2,115.2 		"/>
		<polygon id="_434842736" class="st0" points="307.2,130.56 360.96,130.56 360.96,145.92 307.2,145.92 		"/>
	</g>
	<polygon class="st0" points="307.2,330.24 360.96,330.24 360.96,345.6 307.2,345.6 	"/>
	<polygon class="st0" points="307.2,360.96 360.96,360.96 360.96,376.32 307.2,376.32 	"/>
	<path class="st0" d="M350.52,186.03l63.99,51.16l9.16,7.33l-10.39,5.42l-22.54,11.76l29.09,55.76l-13.56,7.08l-29.1-55.76
		l-22.53,11.76l-10.42,5.44l-0.77-11.74l-5.36-81.75l-1.13-17.28L350.52,186.03L350.52,186.03z M395.81,241.8l-41.27-32.99
		l3.45,52.73L395.81,241.8L395.81,241.8z"/>
</g>
</svg>
