<?xml version="1.0" encoding="utf-8"?>
<!-- Generator: Adobe Illustrator 22.1.0, SVG Export Plug-In . SVG Version: 6.00 Build 0)  -->
<svg version="1.1" id="Layer_1" xmlns="http://www.w3.org/2000/svg" xmlns:xlink="http://www.w3.org/1999/xlink" x="0px" y="0px"
	 viewBox="0 0 16.8 22.7" style="enable-background:new 0 0 16.8 22.7;" xml:space="preserve">
<style type="text/css">
	.st0{fill:#C7C8CA;}
</style>
<path class="st0" d="M10.8,15.7H5.1v-0.6c0-1,0.1-1.8,0.3-2.4c0.2-0.6,0.6-1.2,1-1.7c0.4-0.5,1.4-1.4,3-2.7c0.8-0.7,1.2-1.3,1.2-1.8
	c0-0.6-0.2-1-0.5-1.3C9.8,4.9,9.3,4.8,8.6,4.8C7.9,4.8,7.3,5,6.8,5.5C6.3,5.9,6,6.8,5.9,8L0,7.2C0.2,5.1,1,3.3,2.4,2
	c1.4-1.3,3.5-2,6.3-2c2.2,0,4,0.5,5.4,1.4c1.9,1.2,2.8,2.9,2.8,5c0,0.9-0.2,1.7-0.7,2.5c-0.5,0.8-1.5,1.8-2.9,2.9
	c-1,0.8-1.7,1.5-1.9,2C11,14.3,10.8,14.9,10.8,15.7L10.8,15.7z"/>
<polygon class="st0" points="4.9,17.2 11.1,17.2 11.1,22.7 4.9,22.7 4.9,17.2 "/>
</svg>
