<svg id="Capa_1" data-name="Capa 1" xmlns="http://www.w3.org/2000/svg" viewBox="0 0 956.16 1226.14"><title>trama</title><rect x="531.38" y="1080.38" width="195.02" height="3.49" transform="translate(-580.85 761.17) rotate(-44.98)" style="fill:#878787;opacity:0.28"/><g style="opacity:0.28"><path d="M679.68,944.25A26.28,26.28,0,0,0,687.4,963l204.84,204.83,2.46-2.47L689.86,960.49a23,23,0,0,1,0-32.49l111-111-2.47-2.47-111,111A26.26,26.26,0,0,0,679.68,944.25Z" style="fill:#878787"/></g><g style="opacity:0.28"><rect x="499.81" y="936.89" width="3.49" height="314.4" transform="translate(-626.74 675.12) rotate(-45)" style="fill:#878787"/></g><g style="opacity:0.28"><path d="M294.05,849.87l2.46,2.47L419.62,729.23a19.21,19.21,0,0,1,27.13,0L619.92,902.4a22.68,22.68,0,0,0,32.05,0L826.62,727.75l-2.47-2.46L649.51,899.93a19.23,19.23,0,0,1-27.13,0L449.21,726.76a22.7,22.7,0,0,0-32,0Z" style="fill:#878787"/></g><path d="M299.29,857.85a9.64,9.64,0,1,0-9.64,9.64,9.65,9.65,0,0,0,9.64-9.64Z" style="fill:#878787;opacity:0.28"/><path d="M394.67,977.13a9.65,9.65,0,1,0-9.65,9.64,9.65,9.65,0,0,0,9.65-9.64Z" style="fill:#878787;opacity:0.28"/><path d="M405.76,534.33,581.83,710.52a22.71,22.71,0,0,0,32,0L722.19,602.21a19.26,19.26,0,0,1,27.16,0L953.7,805.87l2.46-2.47L751.81,599.72a22.74,22.74,0,0,0-32.08,0L611.42,708.06a19.23,19.23,0,0,1-27.12,0L408.23,531.86Z" style="fill:#878787;opacity:0.28"/><path d="M396.2,476.53a9.65,9.65,0,1,0-9.65,9.64,9.65,9.65,0,0,0,9.65-9.64Z" style="fill:#878787;opacity:0.28"/><path d="M382.88,693a9.64,9.64,0,1,0-9.64,9.65,9.64,9.64,0,0,0,9.64-9.65Z" style="fill:#878787;opacity:0.28"/><g style="opacity:0.28"><path d="M347.05,190.6v.06a22.48,22.48,0,0,0,6.67,16l39.12,38.71,2.45-2.47-39.11-38.72a19.12,19.12,0,0,1-.07-27L530.76,2.47,528.29,0,353.64,174.65A22.39,22.39,0,0,0,347.05,190.6Z" style="fill:#8ed2f1"/></g><g style="opacity:0.28"><path d="M410.23,247.49a9.64,9.64,0,1,0-9.64,9.65,9.63,9.63,0,0,0,9.64-9.65Z" style="fill:#8ed2f1"/></g><g style="opacity:0.28"><path d="M301.88,309.54a22.47,22.47,0,0,0,6.62,16L481.93,499l2.47-2.46L311,323.1A19.24,19.24,0,0,1,311,296L447.67,159.29l-2.47-2.46L308.5,293.51A22.49,22.49,0,0,0,301.88,309.54Z" style="fill:#878787"/></g><g style="opacity:0.28"><path d="M462.57,152.74a9.65,9.65,0,1,0-9.65,9.64,9.65,9.65,0,0,0,9.65-9.64Z" style="fill:#878787"/></g><path d="M481.4,655v0a22.43,22.43,0,0,0,6.65,16L807.24,988.3l2.46-2.48L490.51,668.59a19,19,0,0,1-5.62-13.53v0a19,19,0,0,1,5.58-13.52L625.83,506.14l-2.46-2.46L488,639.05A22.45,22.45,0,0,0,481.4,655Z" style="fill:#878787;opacity:0.28"/><path d="M640.65,498.25a9.65,9.65,0,1,0-9.65,9.64,9.65,9.65,0,0,0,9.65-9.64Z" style="fill:#878787;opacity:0.28"/><g style="opacity:0.28"><path d="M78.16,326.91,455.87,702.68a25.19,25.19,0,0,0,35.53,0L798.88,395.09l-2.46-2.46L488.93,700.17a21.7,21.7,0,0,1-30.6,0L80.62,324.43Z" style="fill:#ffdd81"/></g><g style="opacity:0.28"><path d="M626.21,312.05a9.65,9.65,0,1,0-9.65,9.64,9.64,9.64,0,0,0,9.65-9.64Z" style="fill:#878787"/><path d="M521.11,416.63a30.79,30.79,0,0,0,9,21.84L675.39,581.66l2.46-2.46L532.6,436a27.46,27.46,0,0,1,0-38.73L615.47,315a1.75,1.75,0,0,0,0-2.47h0a1.74,1.74,0,0,0-2.46,0L530.14,394.8A30.78,30.78,0,0,0,521.11,416.63Z" style="fill:#878787"/><path d="M693.06,585.9a9.65,9.65,0,1,0-9.65,9.65,9.65,9.65,0,0,0,9.65-9.65Z" style="fill:#878787"/></g><g style="opacity:0.28"><path d="M83.06,319.43a9.65,9.65,0,1,0-9.65,9.65,9.65,9.65,0,0,0,9.65-9.65Z" style="fill:#ffdd81"/></g><g style="opacity:0.28"><path d="M219.94,778.82l-53.22-53.15a22.71,22.71,0,0,1,0-32.07L378.15,481.7l2.46,2.46L169.16,696.07a19.21,19.21,0,0,0,0,27.13l53.22,53.16Z" style="fill:#878787"/></g><g style="opacity:0.28"><rect x="49.87" y="829.6" width="372.09" height="3.49" transform="translate(-518.75 410.31) rotate(-45)" style="fill:#878787"/></g><path d="M109.7,969.88a9.65,9.65,0,1,0-9.65,9.64,9.64,9.64,0,0,0,9.65-9.64Z" style="fill:#878787;opacity:0.28"/><g style="opacity:0.28"><path d="M219.55,151.66a9.65,9.65,0,1,0-9.64,9.64,9.65,9.65,0,0,0,9.64-9.64Z" style="fill:#878787"/></g><g style="opacity:0.28"><path d="M538.09,902.74l2.47,2.46L679.13,766.64a21.82,21.82,0,0,1,30.84,0L921.54,978.21l2.46-2.47L712.43,764.17a25.33,25.33,0,0,0-35.77,0Z" style="fill:#878787"/></g><g style="opacity:0.28"><path d="M18.9,972l2.46-2.46,138.57,138.56a21.82,21.82,0,0,0,30.84,0L473,828.17l2.47,2.47L193.24,1110.58a25.34,25.34,0,0,1-35.78,0Z" style="fill:#878787"/><path d="M25.52,967.3a9.65,9.65,0,1,0-9.64,9.64,9.65,9.65,0,0,0,9.64-9.64Z" style="fill:#878787"/><path d="M483.83,829.4a9.65,9.65,0,1,0-9.64,9.65,9.65,9.65,0,0,0,9.64-9.65Z" style="fill:#878787"/></g><g style="opacity:0.28"><rect x="23.52" y="123.33" width="253.82" height="3.49" transform="translate(-44.37 143.12) rotate(-45.03)" style="fill:#878787"/></g><path d="M711.45,1009a9.64,9.64,0,1,0-9.64,9.64,9.64,9.64,0,0,0,9.64-9.64Z" style="fill:#878787;opacity:0.28"/><g style="opacity:0.28"><line x1="619.78" y1="383.97" x2="621.9" y2="386.09" style="fill:none;stroke:#878787;stroke-linecap:round;stroke-linejoin:round;stroke-width:4.5px"/><line x1="630.95" y1="395.13" x2="798.26" y2="562.44" style="fill:none;stroke:#878787;stroke-linecap:round;stroke-linejoin:round;stroke-width:4.5px;stroke-dasharray:5.903101444244385,12.79005241394043"/><line x1="802.78" y1="566.97" x2="804.9" y2="569.09" style="fill:none;stroke:#878787;stroke-linecap:round;stroke-linejoin:round;stroke-width:4.5px"/></g><g style="opacity:0.28"><line x1="509.78" y1="738.16" x2="511.9" y2="740.28" style="fill:none;stroke:#878787;stroke-linecap:round;stroke-linejoin:round;stroke-width:4.5px"/><line x1="521.12" y1="749.51" x2="637.88" y2="866.26" style="fill:none;stroke:#878787;stroke-linecap:round;stroke-linejoin:round;stroke-width:4.5px;stroke-dasharray:6.022534370422363,13.048824310302734"/><line x1="642.49" y1="870.88" x2="644.61" y2="873" style="fill:none;stroke:#878787;stroke-linecap:round;stroke-linejoin:round;stroke-width:4.5px"/></g><g style="opacity:0.28"><line x1="722.88" y1="951.26" x2="725" y2="953.38" style="fill:none;stroke:#878787;stroke-linecap:round;stroke-linejoin:round;stroke-width:4.5px"/><line x1="734.23" y1="962.61" x2="850.98" y2="1079.37" style="fill:none;stroke:#878787;stroke-linecap:round;stroke-linejoin:round;stroke-width:4.5px;stroke-dasharray:6.022534370422363,13.048824310302734"/><line x1="855.6" y1="1083.98" x2="857.72" y2="1086.1" style="fill:none;stroke:#878787;stroke-linecap:round;stroke-linejoin:round;stroke-width:4.5px"/></g><g style="opacity:0.28"><line x1="514.36" y1="1021.87" x2="516.48" y2="1024" style="fill:none;stroke:#878787;stroke-linecap:round;stroke-linejoin:round;stroke-width:4.5px"/><line x1="526.05" y1="1033.56" x2="633.13" y2="1140.64" style="fill:none;stroke:#878787;stroke-linecap:round;stroke-linejoin:round;stroke-width:4.5px;stroke-dasharray:6.244771480560303,13.530338287353516"/><line x1="637.91" y1="1145.43" x2="640.03" y2="1147.55" style="fill:none;stroke:#878787;stroke-linecap:round;stroke-linejoin:round;stroke-width:4.5px"/></g><g style="opacity:0.28"><line x1="2.25" y1="58.75" x2="4.37" y2="60.87" style="fill:none;stroke:#878787;stroke-linecap:round;stroke-linejoin:round;stroke-width:4.5px"/><line x1="13.57" y1="70.07" x2="251.07" y2="307.56" style="fill:none;stroke:#878787;stroke-linecap:round;stroke-linejoin:round;stroke-width:4.5px;stroke-dasharray:6.006515979766846,13.014118194580078"/><line x1="255.67" y1="312.16" x2="257.79" y2="314.28" style="fill:none;stroke:#878787;stroke-linecap:round;stroke-linejoin:round;stroke-width:4.5px"/></g><g style="opacity:0.28"><line x1="428.7" y1="296.39" x2="426.58" y2="298.51" style="fill:none;stroke:#878787;stroke-linecap:round;stroke-linejoin:round;stroke-width:4.5px"/><line x1="417.12" y1="307.97" x2="269.72" y2="455.37" style="fill:none;stroke:#878787;stroke-linecap:round;stroke-linejoin:round;stroke-width:4.5px;stroke-dasharray:6.176478862762451,13.382370948791504"/><line x1="264.99" y1="460.1" x2="262.86" y2="462.22" style="fill:none;stroke:#878787;stroke-linecap:round;stroke-linejoin:round;stroke-width:4.5px"/></g><g style="opacity:0.28"><line x1="456.16" y1="526.65" x2="454.04" y2="528.77" style="fill:none;stroke:#ffdd82;stroke-linecap:round;stroke-linejoin:round;stroke-width:4.5px"/><line x1="444.57" y1="538.23" x2="297.17" y2="685.63" style="fill:none;stroke:#ffdd82;stroke-linecap:round;stroke-linejoin:round;stroke-width:4.5px;stroke-dasharray:6.176478862762451,13.382370948791504"/><line x1="292.44" y1="690.36" x2="290.32" y2="692.48" style="fill:none;stroke:#ffdd82;stroke-linecap:round;stroke-linejoin:round;stroke-width:4.5px"/></g><g style="opacity:0.28"><line x1="401.64" y1="1058.06" x2="399.52" y2="1060.18" style="fill:none;stroke:#ffdd82;stroke-linecap:round;stroke-linejoin:round;stroke-width:4.5px"/><line x1="390.06" y1="1069.64" x2="242.66" y2="1217.04" style="fill:none;stroke:#ffdd82;stroke-linecap:round;stroke-linejoin:round;stroke-width:4.5px;stroke-dasharray:6.176478862762451,13.382370948791504"/><line x1="237.93" y1="1221.77" x2="235.8" y2="1223.89" style="fill:none;stroke:#ffdd82;stroke-linecap:round;stroke-linejoin:round;stroke-width:4.5px"/></g><g style="opacity:0.28"><line x1="446.51" y1="350.78" x2="448.63" y2="352.9" style="fill:none;stroke:#ffdd82;stroke-linecap:round;stroke-linejoin:round;stroke-width:4.5px"/><line x1="457.5" y1="361.77" x2="478.99" y2="383.25" style="fill:none;stroke:#ffdd82;stroke-linecap:round;stroke-linejoin:round;stroke-width:4.5px;stroke-dasharray:5.788681983947754,12.542144775390625"/><line x1="483.42" y1="387.69" x2="485.55" y2="389.81" style="fill:none;stroke:#ffdd82;stroke-linecap:round;stroke-linejoin:round;stroke-width:4.5px"/></g><g style="opacity:0.28"><path d="M285.33,954.56l2.46,2.47L396.67,848.15a19.26,19.26,0,0,1,27.17,0l338.44,336.71,2.46-2.47L426.29,845.64a22.76,22.76,0,0,0-32.09.05Z" style="fill:#8ed2f1"/><path d="M289.63,961.43a9.64,9.64,0,1,0-9.64,9.64,9.64,9.64,0,0,0,9.64-9.64Z" style="fill:#8ed2f1"/></g><g style="opacity:0.28"><path d="M163.35,284.6v.06a22.36,22.36,0,0,0,6.67,16l39.12,38.72,2.45-2.48-39.11-38.72a19.11,19.11,0,0,1-.07-27L422.34,21.88l-2.47-2.46L169.94,268.65A22.43,22.43,0,0,0,163.35,284.6Z" style="fill:#8ed2f1"/><path d="M226.53,341.5a9.65,9.65,0,1,0-9.64,9.64,9.64,9.64,0,0,0,9.64-9.64Z" style="fill:#8ed2f1"/></g></svg>