<?xml version="1.0" encoding="utf-8"?>
<!-- Generator: Adobe Illustrator 22.1.0, SVG Export Plug-In . SVG Version: 6.00 Build 0)  -->
<svg version="1.1" id="Capa_1" xmlns="http://www.w3.org/2000/svg" xmlns:xlink="http://www.w3.org/1999/xlink" x="0px" y="0px"
	 viewBox="0 0 129 29" style="enable-background:new 0 0 129 29;" xml:space="preserve">
<style type="text/css">
	.st0{fill:#D01A49;}
	.st1{fill:#FFFFFF;}
</style>
<path d="M92.7,21.5h0.2v-1.8h1v5.1h-0.9v-0.3h-0.2c-0.2,0.3-0.5,0.4-1,0.4c-0.9,0-1.5-0.8-1.5-1.9c0-1.1,0.6-1.9,1.5-1.9
	C92.2,21.1,92.5,21.3,92.7,21.5z M92.9,23c0-0.6-0.3-1.1-0.9-1.1c-0.6,0-0.9,0.5-0.9,1.1c0,0.6,0.3,1.1,0.9,1.1
	C92.6,24,92.9,23.5,92.9,23z"/>
<path d="M97.9,23.1h-2.6c0,0.6,0.3,1,0.9,1c0.4,0,0.6-0.1,0.7-0.4h1c-0.1,0.7-0.7,1.2-1.7,1.2c-1.1,0-1.8-0.8-1.8-1.9
	c0-1.1,0.7-1.9,1.8-1.9c1.1,0,1.7,0.7,1.7,1.7V23.1z M95.3,22.4h1.5c-0.1-0.4-0.3-0.6-0.7-0.6C95.7,21.8,95.4,22.1,95.3,22.4z"/>
<path d="M99.3,19.7h-1v5.1h1V19.7z"/>
<path d="M103.7,19.8c1.1,0,1.8,0.6,1.8,1.6c0,1-0.7,1.6-1.8,1.6h-1.2v1.8h-1v-5H103.7z M103.6,22.1c0.6,0,0.9-0.3,0.9-0.7
	c0-0.4-0.2-0.7-0.9-0.7h-1.1v1.4L103.6,22.1L103.6,22.1z"/>
<path d="M109.1,23.1h-2.6c0,0.6,0.3,1,0.9,1c0.4,0,0.6-0.1,0.7-0.4h1c-0.1,0.7-0.7,1.2-1.7,1.2c-1.1,0-1.8-0.8-1.8-1.9
	c0-1.1,0.7-1.9,1.8-1.9c1.1,0,1.7,0.7,1.7,1.7V23.1z M106.5,22.4h1.5c-0.1-0.4-0.3-0.6-0.7-0.6C106.9,21.8,106.7,22.1,106.5,22.4z"
	/>
<path d="M112,22.1h-0.4c-0.8,0-1.1,0.4-1.1,1.1v1.6h-1v-3.6h0.9v0.4h0.2c0.1-0.2,0.4-0.4,1-0.4h0.3L112,22.1L112,22.1z"/>
<path d="M113.3,21.2v2c0,0.5,0.3,0.8,0.7,0.8c0.5,0,0.8-0.4,0.8-0.9v-1.9h1v3.6h-0.9v-0.3h-0.2c-0.2,0.3-0.5,0.4-1,0.4
	c-0.9,0-1.3-0.5-1.3-1.5v-2.2H113.3z M114.4,20.7h-0.9l0.6-1h1L114.4,20.7z"/>
<path d="M94.1,13.9h-1.5v4.1h-1v-4.1H90V13h4.1V13.9z"/>
<path d="M97.1,16.2h-2.5c0,0.6,0.3,1,0.9,1c0.4,0,0.6-0.1,0.7-0.4h1c-0.1,0.7-0.7,1.2-1.7,1.2c-1.1,0-1.8-0.8-1.8-1.9
	c0-1.1,0.7-1.9,1.8-1.9c1.1,0,1.7,0.7,1.7,1.7L97.1,16.2L97.1,16.2z M94.6,15.6h1.5c-0.1-0.4-0.3-0.6-0.7-0.6
	C94.9,15,94.7,15.2,94.6,15.6z"/>
<path d="M100.9,16.7c-0.1,0.8-0.7,1.3-1.6,1.3c-1.1,0-1.8-0.7-1.8-1.9c0-1.1,0.7-1.9,1.8-1.9c0.9,0,1.5,0.5,1.6,1.2h-1
	c-0.1-0.3-0.3-0.4-0.6-0.4c-0.6,0-0.8,0.5-0.8,1.1c0,0.6,0.2,1.1,0.8,1.1c0.4,0,0.6-0.2,0.7-0.5L100.9,16.7L100.9,16.7z"/>
<path d="M103.9,17.9v-2c0-0.5-0.3-0.8-0.7-0.8c-0.5,0-0.8,0.4-0.8,0.9v1.9h-1v-3.6h0.9v0.3h0.2c0.2-0.3,0.5-0.4,1-0.4
	c0.9,0,1.3,0.5,1.3,1.5v2.2H103.9z"/>
<path d="M109.1,16.1c0,1.1-0.7,1.9-1.9,1.9c-1.1,0-1.9-0.8-1.9-1.9c0-1.1,0.7-1.9,1.9-1.9C108.4,14.3,109.1,15,109.1,16.1z
	 M108.1,16.1c0-0.6-0.3-1.1-0.9-1.1c-0.6,0-0.9,0.5-0.9,1.1c0,0.6,0.3,1.1,0.9,1.1C107.8,17.2,108.1,16.7,108.1,16.1z"/>
<path d="M110.5,12.9h-1v5.1h1V12.9z"/>
<path d="M114.8,16.1c0,1.1-0.7,1.9-1.9,1.9c-1.1,0-1.9-0.8-1.9-1.9c0-1.1,0.7-1.9,1.9-1.9C114,14.3,114.8,15,114.8,16.1z
	 M113.8,16.1c0-0.6-0.3-1.1-0.9-1.1c-0.6,0-0.9,0.5-0.9,1.1c0,0.6,0.3,1.1,0.9,1.1C113.5,17.2,113.8,16.7,113.8,16.1z M113.3,13.9
	h-0.9l0.6-1h1L113.3,13.9z"/>
<path d="M118.7,14.3v3.4c0,1-0.7,1.6-1.8,1.6c-1,0-1.6-0.4-1.7-1.2h1c0,0.3,0.3,0.4,0.7,0.4c0.6,0,0.8-0.4,0.8-1v-0.2h-0.2
	c-0.2,0.2-0.4,0.4-0.9,0.4c-0.9,0-1.6-0.7-1.6-1.8c0-1.1,0.6-1.8,1.6-1.8c0.5,0,0.8,0.2,1,0.4h0.2v-0.3L118.7,14.3L118.7,14.3z
	 M117.8,16.1c0-0.5-0.3-1-0.9-1c-0.5,0-0.9,0.4-0.9,1c0,0.6,0.3,1,0.9,1C117.5,17.1,117.8,16.6,117.8,16.1z"/>
<path d="M119.5,12.9h1v0.9h-1V12.9z M120.4,17.9h-1v-3.6h1V17.9z"/>
<path d="M124.4,16.7c-0.1,0.8-0.7,1.3-1.6,1.3c-1.1,0-1.8-0.7-1.8-1.9c0-1.1,0.7-1.9,1.8-1.9c0.9,0,1.5,0.5,1.6,1.2h-1
	c-0.1-0.3-0.3-0.4-0.6-0.4c-0.6,0-0.8,0.5-0.8,1.1c0,0.6,0.2,1.1,0.8,1.1c0.4,0,0.6-0.2,0.7-0.5L124.4,16.7L124.4,16.7z"/>
<path d="M127.1,17.6h-0.2c-0.2,0.3-0.5,0.4-1,0.4c-0.8,0-1.3-0.5-1.3-1.2c0-0.5,0.4-1.2,1.5-1.2h0.9v-0.1c0-0.4-0.2-0.5-0.6-0.5
	c-0.4,0-0.6,0.1-0.6,0.4h-1c0-0.7,0.7-1.1,1.5-1.1c1,0,1.6,0.4,1.6,1.3V18h-0.9L127.1,17.6L127.1,17.6z M127.1,16.5v-0.2h-0.8
	c-0.4,0-0.7,0.1-0.7,0.5s0.2,0.5,0.6,0.5C126.7,17.2,127.1,16.9,127.1,16.5z"/>
<path d="M94.4,6.1v3.1c0,1.2-0.7,1.9-2.1,1.9c-1.3,0-2.1-0.7-2.1-1.9V6.1h1v3.1c0,0.6,0.4,1,1.1,1c0.7,0,1.1-0.4,1.1-1V6.1H94.4z
	 M97.5,11.1V9c0-0.5-0.3-0.8-0.7-0.8c-0.5,0-0.8,0.4-0.8,0.9v1.9h-1V7.5H96v0.3h0.2c0.2-0.3,0.5-0.4,1-0.4c0.9,0,1.3,0.5,1.3,1.5
	v2.2H97.5z M99.1,6h1v0.9h-1V6z M100.1,11.1h-1V7.5h1V11.1z M100.5,7.5h1l0.7,2.7h0.3l0.7-2.7h1l-1,3.6h-1.7L100.5,7.5z M107.9,9.4
	h-2.6c0,0.6,0.3,1,0.9,1c0.4,0,0.6-0.1,0.7-0.4h1c-0.1,0.7-0.7,1.2-1.7,1.2c-1.1,0-1.8-0.8-1.8-1.9c0-1.1,0.7-1.9,1.8-1.9
	c1.1,0,1.7,0.7,1.7,1.7V9.4z M105.4,8.7h1.5c-0.1-0.4-0.3-0.6-0.7-0.6C105.7,8.1,105.5,8.4,105.4,8.7z M110.9,8.4h-0.4
	c-0.8,0-1.1,0.4-1.1,1.1V11h-1V7.5h0.9v0.4h0.2c0.1-0.2,0.4-0.4,1-0.4h0.3L110.9,8.4L110.9,8.4z M113.3,8.5c0-0.3-0.3-0.3-0.6-0.3
	c-0.3,0-0.5,0.1-0.5,0.3c0,0.2,0.1,0.3,0.4,0.3l0.7,0.1c0.7,0.1,1.1,0.4,1.1,1.1c0,0.6-0.5,1.2-1.6,1.2c-1.1,0-1.6-0.5-1.7-1.2h1
	c0,0.3,0.3,0.5,0.7,0.5c0.4,0,0.6-0.1,0.6-0.4c0-0.3-0.2-0.3-0.5-0.4l-0.7-0.1c-0.6-0.1-1-0.4-1-1c0-0.6,0.5-1.1,1.5-1.1
	c0.9,0,1.4,0.4,1.5,1.1L113.3,8.5L113.3,8.5z M114.9,6h1v0.9h-1V6z M115.9,11.1h-1V7.5h1V11.1z M118.9,7.8h0.2V6h1v5.1h-0.9v-0.3
	h-0.2c-0.2,0.3-0.5,0.4-1,0.4c-0.9,0-1.5-0.8-1.5-1.9s0.6-1.9,1.5-1.9C118.4,7.4,118.7,7.6,118.9,7.8z M119.1,9.3
	c0-0.6-0.3-1.1-0.9-1.1c-0.6,0-0.9,0.5-0.9,1.1s0.3,1.1,0.9,1.1C118.8,10.3,119.1,9.8,119.1,9.3z M123,10.7h-0.2
	c-0.2,0.3-0.5,0.4-1,0.4c-0.8,0-1.3-0.5-1.3-1.2c0-0.5,0.4-1.2,1.5-1.2h0.9V8.7c0-0.4-0.2-0.5-0.6-0.5c-0.4,0-0.6,0.1-0.6,0.4h-1
	c0-0.7,0.7-1.1,1.5-1.1c1,0,1.6,0.4,1.6,1.3v2.3h-0.9L123,10.7L123,10.7z M122.9,9.6V9.4h-0.8c-0.4,0-0.7,0.1-0.7,0.5
	c0,0.3,0.2,0.5,0.6,0.5C122.6,10.4,122.9,10.1,122.9,9.6z M126.9,7.8h0.2V6h1v5.1h-0.9v-0.3h-0.2c-0.2,0.3-0.5,0.4-1,0.4
	c-0.9,0-1.5-0.8-1.5-1.9s0.6-1.9,1.5-1.9C126.4,7.4,126.7,7.6,126.9,7.8z M127.1,9.3c0-0.6-0.3-1.1-0.9-1.1c-0.6,0-0.9,0.5-0.9,1.1
	s0.3,1.1,0.9,1.1C126.8,10.3,127.1,9.8,127.1,9.3z"/>
<path class="st0" d="M28,0H0v28h28V0z"/>
<path class="st1" d="M17,6.2h4.8v12.7l-3.1,2.8H9.3l-3.1-2.8V6.2h4.8v11.2l0.7,0.7h4.6l0.7-0.7V6.2z"/>
<path d="M56,0H28v28h28V0z"/>
<path class="st1" d="M39.6,21.8V9.9h-5.4V6.2h15.6v3.7h-5.4v11.8H39.6z"/>
<path class="st0" d="M84,0H56v28h28V0z"/>
<path class="st1" d="M67.1,16.5v4.3h-4.8V5.2h12.7l2.8,2.6v6l-2.8,2.6H67.1z M72.3,9h-5.3v3.8h5.3l0.7-0.7V9.6L72.3,9z"/>
</svg>
